<svg id="Capa_1" enable-background="new 0 0 512 512" height="512" viewBox="0 0 512 512" width="512" xmlns="http://www.w3.org/2000/svg" xmlns:xlink="http://www.w3.org/1999/xlink"><linearGradient id="SVGID_1_" gradientUnits="userSpaceOnUse" x1="20" x2="492" y1="256" y2="256"><stop offset="0" stop-color="#00f2fe"/><stop offset=".0208" stop-color="#03effe"/><stop offset=".2931" stop-color="#24d2fe"/><stop offset=".5538" stop-color="#3cbdfe"/><stop offset=".7956" stop-color="#4ab0fe"/><stop offset="1" stop-color="#4facfe"/></linearGradient><path d="m387 492c0 11.046-8.954 20-20 20s-20-8.954-20-20c0-11.046 8.954-20 20-20s20 8.954 20 20zm-18.094-139.631c-22.125 11.295-46.304 17.022-71.863 17.022-83.905 0-134.043-62.87-134.043-123.652 0-43.075 32.037-103.739 103.261-103.739 41.183 0 82.739 22.559 82.739 72.957 0 17.891-8.607 30.327-20.351 38.447-4.696-18.066-21.114-31.404-40.649-31.404-23.196 0-42 18.804-42 42 0 21.065 15.864 41.978 43 41.978 27.864 0 48.433-8.774 66.078-22.32 21.875-16.794 33.922-41.192 33.922-68.701 0-35.33-13.745-64.959-39.75-85.686-22.062-17.586-51.536-27.271-82.989-27.271-56.022 0-90.154 27.186-108.922 49.991-21.502 26.128-34.339 61.174-34.339 93.748 0 41.06 16.98 81.986 46.586 112.284 32.368 33.125 77.633 51.368 127.458 51.368 31.942 0 62.24-7.199 90.05-21.396 9.838-5.022 13.742-17.069 8.719-26.907s-17.069-13.742-26.907-8.719zm106.724-224.63c-10.732-26.276-26.451-49.327-46.719-68.512-40.932-38.747-97.176-59.227-162.65-59.227-68.796 0-131.518 25.88-176.613 72.872-44.913 46.803-69.648 111.839-69.648 183.128 0 69.646 28.779 134.409 81.035 182.361 51.749 47.487 121.344 73.639 195.965 73.639 11.046 0 20-8.954 20-20s-8.954-20-20-20c-132.897 0-237-94.878-237-216 0-125.159 86.745-216 206.261-216 111.096 0 185.739 70.31 185.739 174.957 0 28.084-7.292 55.38-21.087 78.937-5.582 9.532-2.38 21.783 7.151 27.365 9.531 5.581 21.783 2.38 27.365-7.151 17.382-29.682 26.57-63.968 26.57-99.15.001-31.281-5.507-60.625-16.369-87.219zm-38.63 344.261c-11.046 0-20 8.954-20 20 0 11.046 8.954 20 20 20s20-8.954 20-20c0-11.046-8.954-20-20-20z" fill="url(#SVGID_1_)"/></svg>